# xmcd CD database file
#
# Track frame offsets:
#	150
#	13448
#	26951
#	40039
#	58256
#	73085
#	90105
#
# Disc length: 1403 seconds
#
# Revision: 0
# Processed by: cddbd v1.4PL0 Copyright (c) Steve Scherf et al.
# Submitted via: CDex 1.40Beta8
#
DISCID=5b057907
DTITLE=Sondra Rankin - The New Girl
DYEAR=2001
DGENRE=Country
TTITLE0=The New Girl
TTITLE1=It's In The Way
TTITLE2=Do You Ever Think Of Me
TTITLE3=Over My Shoulder
TTITLE4=Girl's Got Soul
TTITLE5=Heart's Beatin' In The Moonlight
TTITLE6=I Can See Us
EXTD=YEAR: 2001 ID3G: 2
EXTT0=
EXTT1=
EXTT2=
EXTT3=
EXTT4=
EXTT5=
EXTT6=
PLAYORDER=
